<svg width="324.0951721191406px" height="120.8px" xmlns="http://www.w3.org/2000/svg" viewBox="87.9524139404297 14.600000000000001 324.0951721191406 120.8" style="background: rgba(0, 0, 0, 0);" preserveAspectRatio="xMidYMid"><defs><linearGradient id="editing-outline-gradient" x1="-0.5" x2="1.5" y1="0.5" y2="0.5"><stop offset="0" stop-color="#ff4000"></stop><stop offset="1" stop-color="#000000"></stop></linearGradient><filter id="editing-outline" x="-100%" y="-100%" width="300%" height="300%"><feMorphology in="SourceGraphic" operator="dilate" radius="3" result="outline"></feMorphology><feComposite operator="out" in="outline" in2="SourceAlpha"></feComposite></filter></defs><g filter="url(#editing-outline)"><g transform="translate(139.592733502388, 98.68000030517578)"><path d="M6.53 0L-0.83 0L10.75-42.24L24.13-42.24L27.07-18.11L38.98-42.24L50.18-42.24L51.33-10.62L51.33-10.62Q51.58-4.35 54.66-2.43L54.66-2.43L54.66-2.43Q53.95-1.15 51.90 0.06L51.90 0.06L51.90 0.06Q49.86 1.28 47.14 1.28L47.14 1.28L47.14 1.28Q44.42 1.28 42.82 0.51L42.82 0.51L42.82 0.51Q41.22-0.26 40.32-1.54L40.32-1.54L40.32-1.54Q38.72-3.84 38.72-8.26L38.72-8.26L38.72-28.03L26.11 0L18.18 0L13.70-28.74L6.53 0ZM60.19-1.92L60.19-1.92L60.19-1.92Q58.69-3.58 58.02-6.21L58.02-6.21L58.02-6.21Q57.34-8.83 57.34-13.12L57.34-13.12L57.34-13.12Q57.34-17.41 58.82-21.31L58.82-21.31L58.82-21.31Q60.29-25.22 62.98-28.03L62.98-28.03L62.98-28.03Q68.48-33.92 77.57-33.92L77.57-33.92L77.57-33.92Q80.83-33.92 83.20-32.83L83.20-32.83L94.14-33.92L89.41-8.96L89.41-8.96Q89.22-8.19 89.22-6.78L89.22-6.78L89.22-6.78Q89.22-5.38 90.08-4.48L90.08-4.48L90.08-4.48Q90.94-3.58 92.22-3.46L92.22-3.46L92.22-3.46Q91.58-1.28 89.25 0L89.25 0L89.25 0Q86.91 1.28 84.29 1.28L84.29 1.28L84.29 1.28Q81.66 1.28 79.90 0.29L79.90 0.29L79.90 0.29Q78.14-0.70 77.63-2.37L77.63-2.37L77.63-2.37Q76.61-0.77 74.43 0.26L74.43 0.26L74.43 0.26Q72.26 1.28 69.34 1.28L69.34 1.28L69.34 1.28Q66.43 1.28 64.06 0.51L64.06 0.51L64.06 0.51Q61.70-0.26 60.19-1.92ZM73.70-27.90L73.70-27.90L73.70-27.90Q72.96-26.75 72.32-24.80L72.32-24.80L72.32-24.80Q71.68-22.85 70.62-17.63L70.62-17.63L70.62-17.63Q69.57-12.42 69.57-8.70L69.57-8.70L69.57-8.70Q69.57-4.99 70.14-3.90L70.14-3.90L70.14-3.90Q70.72-2.82 71.74-2.82L71.74-2.82L71.74-2.82Q73.79-2.82 75.30-4.77L75.30-4.77L75.30-4.77Q76.80-6.72 77.38-10.18L77.38-10.18L80.77-28.93L80.77-28.93Q79.42-30.08 77.86-30.08L77.86-30.08L77.86-30.08Q76.29-30.08 75.36-29.57L75.36-29.57L75.36-29.57Q74.43-29.06 73.70-27.90ZM117.63-17.98L117.63-17.98L117.63-17.98Q119.94-22.08 119.94-26.24L119.94-26.24L119.94-26.24Q119.94-28.99 117.95-28.99L117.95-28.99L117.95-28.99Q116.42-28.99 114.82-26.37L114.82-26.37L114.82-26.37Q113.15-23.74 112.64-20.35L112.64-20.35L109.31 0L96.06 1.28L102.59-32.64L113.15-33.92L112-27.46L112-27.46Q115.14-33.92 122.18-33.92L122.18-33.92L122.18-33.92Q125.89-33.92 127.90-32L127.90-32L127.90-32Q129.92-30.08 129.92-26.14L129.92-26.14L129.92-26.14Q129.92-22.21 127.33-19.71L127.33-19.71L127.33-19.71Q124.74-17.22 120.32-17.22L120.32-17.22L120.32-17.22Q118.40-17.22 117.63-17.98ZM154.18-31.55L154.18-31.55L154.18-31.55Q156.29-33.92 159.94-33.92L159.94-33.92L159.94-33.92Q162.18-33.92 163.90-32.70L163.90-32.70L163.90-32.70Q165.63-31.49 165.63-29.22L165.63-29.22L165.63-29.22Q165.63-26.94 164.93-24.51L164.93-24.51L164.93-24.51Q164.22-22.08 163.14-19.58L163.14-19.58L163.14-19.58Q160.96-14.72 157.95-10.69L157.95-10.69L157.95-10.69Q153.73-4.86 149.66-1.79L149.66-1.79L149.66-1.79Q145.60 1.28 141.18 1.28L141.18 1.28L141.18 1.28Q137.60 1.28 135.42 0.45L135.42 0.45L135.42 0.45Q135.04-12.99 134.56-17.79L134.56-17.79L134.56-17.79Q134.08-22.59 133.70-25.22L133.70-25.22L133.70-25.22Q133.06-30.34 131.14-31.55L131.14-31.55L131.14-31.55Q132.61-32.83 134.05-33.38L134.05-33.38L134.05-33.38Q135.49-33.92 138.46-33.92L138.46-33.92L138.46-33.92Q141.44-33.92 143.55-31.58L143.55-31.58L143.55-31.58Q145.66-29.25 146.08-25.12L146.08-25.12L146.08-25.12Q146.50-20.99 146.50-16L146.50-16L146.50-16Q146.50-11.01 146.11-4.99L146.11-4.99L146.11-4.99Q148.10-6.40 150.21-10.69L150.21-10.69L150.21-10.69Q153.09-16.64 154.11-23.81L154.11-23.81L154.11-23.81Q154.43-25.98 154.43-28.29L154.43-28.29L154.43-28.29Q154.43-30.59 154.18-31.55ZM193.28-10.82L193.28-10.82L193.28-10.82Q194.88-9.73 194.88-7.33L194.88-7.33L194.88-7.33Q194.88-4.93 193.66-3.39L193.66-3.39L193.66-3.39Q192.45-1.86 190.46-0.83L190.46-0.83L190.46-0.83Q186.37 1.28 181.95 1.28L181.95 1.28L181.95 1.28Q177.54 1.28 174.94 0.32L174.94 0.32L174.94 0.32Q172.35-0.64 170.62-2.43L170.62-2.43L170.62-2.43Q167.23-5.82 167.23-12.03L167.23-12.03L167.23-12.03Q167.23-21.70 172.48-27.58L172.48-27.58L172.48-27.58Q178.11-33.92 187.90-33.92L187.90-33.92L187.90-33.92Q193.98-33.92 196.99-31.36L196.99-31.36L196.99-31.36Q199.23-29.44 199.23-26.30L199.23-26.30L199.23-26.30Q199.23-15.04 179.78-15.04L179.78-15.04L179.78-15.04Q179.52-13.38 179.52-11.97L179.52-11.97L179.52-11.97Q179.52-9.02 180.83-7.90L180.83-7.90L180.83-7.90Q182.14-6.78 184.58-6.78L184.58-6.78L184.58-6.78Q187.01-6.78 189.60-7.90L189.60-7.90L189.60-7.90Q192.19-9.02 193.28-10.82ZM180.22-17.79L180.22-17.79L180.22-17.79Q184.77-17.79 187.39-20.61L187.39-20.61L187.39-20.61Q190.02-23.30 190.02-27.58L190.02-27.58L190.02-27.58Q190.02-29.06 189.47-29.86L189.47-29.86L189.47-29.86Q188.93-30.66 187.84-30.66L187.84-30.66L187.84-30.66Q186.75-30.66 185.82-30.24L185.82-30.24L185.82-30.24Q184.90-29.82 183.94-28.42L183.94-28.42L183.94-28.42Q181.57-25.22 180.22-17.79ZM216.70-3.52L216.70-3.52L216.70-3.52Q214.72 1.28 208.38 1.28L208.38 1.28L208.38 1.28Q205.18 1.28 203.14-0.96L203.14-0.96L203.14-0.96Q201.47-2.82 201.47-4.93L201.47-4.93L201.47-4.93Q201.47-9.73 203.71-20.22L203.71-20.22L208.38-44.80L221.38-46.08L215.17-13.70L215.17-13.70Q214.08-8.96 214.08-7.30L214.08-7.30L214.08-7.30Q214.08-3.65 216.70-3.52Z" fill="url(#editing-outline-gradient)"></path></g></g><style>text {
  font-size: 64px;
  font-family: Arial Black;
  dominant-baseline: central;
  text-anchor: middle;
}</style></svg>